<svg xmlns="http://www.w3.org/2000/svg" width="16" height="16" viewBox="0 0 16 16">
                            <g id="Group_8114" data-name="Group 8114" transform="translate(-1501.679 -486)">
                                <path id="Path_2977" data-name="Path 2977" d="M193.408,3.756,192.05.862A1.5,1.5,0,0,0,190.692,0H180.666a1.5,1.5,0,0,0-1.357.862L177.95,3.756l.029-.062A3,3,0,0,0,179.373,7.7a3.091,3.091,0,0,0,.306.128V16h12V9.5a.5.5,0,0,0-1,0V15h-3V10.5a.5.5,0,0,0-.5-.5h-3a.5.5,0,0,0-.5.5V15h-3V8a3,3,0,0,0,2.5-1.342,3,3,0,0,0,5,0,3,3,0,0,0,5.229-2.9M184.679,11h2v4h-2Zm6.4-4.041A2,2,0,0,1,188.719,5.4a.5.5,0,0,0-.49-.4h-.1a.5.5,0,0,0-.49.4,2,2,0,0,1-3.919,0,.5.5,0,0,0-.49-.4h-.1a.5.5,0,0,0-.49.4,2,2,0,1,1-3.781-1.225l1.357-2.888A.5.5,0,0,1,180.666,1h10.025a.5.5,0,0,1,.452.288L192.5,4.175a2,2,0,0,1-1.422,2.784" transform="translate(1324 486)" fill="#b5b5bf"></path>
                            </g>
                        </svg>