<svg xmlns="http://www.w3.org/2000/svg" width="20" height="20" viewBox="0 0 20 20">
                        <g id="a47ac3ccd1557f7fbdb769f1c535b2b9" transform="translate(0 0)">
                          <path id="Path_41552" data-name="Path 41552" d="M10,0A10,10,0,1,0,20,10,10,10,0,0,0,10,0Zm0,18.333A8.333,8.333,0,1,1,18.333,10,8.333,8.333,0,0,1,10,18.333Z" fill="#fff"></path>
                          <path id="Path_41553" data-name="Path 41553" d="M17.515,14.143,13,11.434V6a1,1,0,0,0-2,0v6a1.075,1.075,0,0,0,.485.857l5,3a1,1,0,1,0,1.03-1.714Z" transform="translate(-2.588 -1.538)" fill="#fff"></path>
                        </g>
                    </svg>