<svg xmlns="http://www.w3.org/2000/svg" width="19.627" height="20" viewBox="0 0 19.627 20">
                        <g id="cb3bc0b728579e634f654dfaf5995832" transform="translate(-8 -7.122)">
                          <rect id="Rectangle_21402" data-name="Rectangle 21402" width="2.455" height="5.729" rx="1.228" transform="translate(10.102 16.386) rotate(-45)" fill="#fff"></rect>
                          <rect id="Rectangle_21403" data-name="Rectangle 21403" width="2.455" height="5.729" rx="1.228" transform="translate(17.623 8.858) rotate(-45)" fill="#fff"></rect>
                          <rect id="Rectangle_21404" data-name="Rectangle 21404" width="4.91" height="6.547" rx="2" transform="translate(12.702 13.203) rotate(-45)" fill="#fff"></rect>
                          <rect id="Rectangle_21405" data-name="Rectangle 21405" width="1.637" height="4.092" transform="translate(12.414 15.225) rotate(-45)" fill="#fff"></rect>
                          <rect id="Rectangle_21406" data-name="Rectangle 21406" width="1.637" height="4.092" transform="translate(17.043 10.599) rotate(-45)" fill="#fff"></rect>
                          <path id="Path_41554" data-name="Path 41554" d="M21.721,14.563l.577.577L21.14,16.3l-.577-.577a.819.819,0,1,1,1.158-1.158Z" transform="translate(-7.281 -4.255)" fill="#fff"></path>
                          <rect id="Rectangle_21407" data-name="Rectangle 21407" width="1.637" height="4.501" transform="translate(18.489 16.673) rotate(-45)" fill="#fff"></rect>
                          <path id="Path_41555" data-name="Path 41555" d="M41.235,36.393l1.158-1.158a.409.409,0,0,1,.581,0L46.833,39.1a1.228,1.228,0,0,1,0,1.735h0a1.228,1.228,0,0,1-1.735,0l-3.863-3.859a.409.409,0,0,1,0-.581Z" transform="translate(-19.564 -16.538)" fill="#fff"></path>
                          <rect id="Rectangle_21408" data-name="Rectangle 21408" width="12.276" height="1.637" transform="translate(8 25.485)" fill="#fff"></rect>
                          <path id="Path_41556" data-name="Path 41556" d="M11.637,48H19a1.637,1.637,0,0,1,1.637,1.637H10A1.637,1.637,0,0,1,11.637,48Z" transform="translate(-1.182 -24.151)" fill="#fff"></path>
                        </g>
                    </svg>