<svg xmlns="http://www.w3.org/2000/svg" width="23.999" height="24" viewBox="0 0 23.999 24">
                <g id="Group_28098" data-name="Group 28098" transform="translate(4436.999 -9778.001)">
                  <path id="Subtraction_193" data-name="Subtraction 193" d="M23,24H1a1,1,0,0,1,0-2H23a1,1,0,1,1,0,2Zm-3-4H4a4,4,0,0,1-4-4V4A4.005,4.005,0,0,1,4,0H20a4,4,0,0,1,4,4V16A4,4,0,0,1,20,20ZM4,2A2,2,0,0,0,2,4V16a2,2,0,0,0,2,2H20a2,2,0,0,0,2-2V4a2,2,0,0,0-2-2Z" transform="translate(-4437 9778)" fill="gray"></path>
                  <path id="Polygon_6" data-name="Polygon 6" d="M5,0l5,8H0Z" transform="translate(-4420 9783) rotate(90)" fill="gray"></path>
                </g>
            </svg>