<svg id="Group_22071" data-name="Group 22071" xmlns="http://www.w3.org/2000/svg" width="14.6" height="16" viewBox="0 0 14.6 16">
                            <g id="LWPOLYLINE" transform="translate(0.158)">
                                <path id="Path_25677" data-name="Path 25677" d="M304.755,426.408v-2.032a.5.5,0,1,1,.993,0v3.239a.5.5,0,0,1-.5.5h-3.216a.5.5,0,0,1,0-1h2.006a6.924,6.924,0,0,0-11.8,1,.5.5,0,0,1-.666.221.5.5,0,0,1-.219-.672,7.913,7.913,0,0,1,13.4-1.256Z" transform="translate(-291.306 -423.268)" fill="#b5b5bf"></path>
                            </g>
                            <g id="LWPOLYLINE-2" data-name="LWPOLYLINE" transform="translate(0 10.879)">
                                <path id="Path_25678" data-name="Path 25678" d="M292.141,414.371V416.4a.5.5,0,1,1-.993,0v-3.238a.5.5,0,0,1,.5-.5h3.216a.5.5,0,0,1,0,1h-2.006a6.924,6.924,0,0,0,11.8-1,.493.493,0,0,1,.666-.221.5.5,0,0,1,.219.671,7.913,7.913,0,0,1-13.4,1.256Z" transform="translate(-291.148 -412.39)" fill="#b5b5bf"></path>
                            </g>
                        </svg>