<svg xmlns="http://www.w3.org/2000/svg" width="16.002" height="16.001" viewBox="0 0 16.002 16.001">
                                <g id="Group_24750" data-name="Group 24750" transform="translate(-242.999 -1172.998)">
                                    <g id="Group_24748" data-name="Group 24748" transform="translate(85 -22)">
                                    <path id="Subtraction_183" data-name="Subtraction 183" d="M16260.5,1270h-5a1.5,1.5,0,0,1,0-3h5a1.5,1.5,0,1,1,0,3Zm-5-2a.5.5,0,0,0,0,1h5a.5.5,0,1,0,0-1Z" transform="translate(-16096 -67)" fill="#b5b5bf"></path>
                                    <path id="Subtraction_180" data-name="Subtraction 180" d="M16256,1271a2,2,0,1,1,2-2A2,2,0,0,1,16256,1271Zm0-3a1,1,0,1,0,1,1A1,1,0,0,0,16256,1268Z" transform="translate(-16094 -72)" fill="#b5b5bf"></path>
                                    </g>
                                    <g id="Group_24749" data-name="Group 24749" transform="translate(93 -14)">
                                    <path id="Subtraction_182" data-name="Subtraction 182" d="M16252.5,1262h-5a1.5,1.5,0,1,1,0-3h5a1.5,1.5,0,1,1,0,3Zm-5-2a.5.5,0,0,0,0,1h5a.5.5,0,0,0,0-1Z" transform="translate(-16088 -59)" fill="#b5b5bf"></path>
                                    <path id="Subtraction_181" data-name="Subtraction 181" d="M16248,1263a2,2,0,1,1,2-2A2,2,0,0,1,16248,1263Zm0-3a1,1,0,1,0,1,1A1,1,0,0,0,16248,1260Z" transform="translate(-16086 -64)" fill="#b5b5bf"></path>
                                    </g>
                                    <path id="Subtraction_174" data-name="Subtraction 174" d="M16418,892h-1v-1a4,4,0,0,0-4-4h-1v-1h1a5.006,5.006,0,0,1,5,5v1Z" transform="translate(-16159 287)" fill="#b5b5bf"></path>
                                    <path id="Subtraction_176" data-name="Subtraction 176" d="M6,6H5V5A4,4,0,0,0,1,1H0V0H1A5.005,5.005,0,0,1,6,5V6Z" transform="translate(249 1188.963) rotate(180)" fill="#b5b5bf"></path>
                                </g>
                            </svg>