<svg xmlns="http://www.w3.org/2000/svg" width="16" height="16" viewBox="0 0 16 16">
                                <g id="Group_8134" data-name="Group 8134" transform="translate(1053.151 256.688)">
                                    <path id="Path_3012" data-name="Path 3012" d="M134.849,88.312h-8a2,2,0,0,0-2,2v5a2,2,0,0,0,2,2v3l2.4-3h5.6a2,2,0,0,0,2-2v-5a2,2,0,0,0-2-2m1,7a1,1,0,0,1-1,1h-8a1,1,0,0,1-1-1v-5a1,1,0,0,1,1-1h8a1,1,0,0,1,1,1Z" transform="translate(-1178 -341)" fill="#b5b5bf"></path>
                                    <path id="Path_3013" data-name="Path 3013" d="M134.849,81.312h8a1,1,0,0,1,1,1v5a1,1,0,0,1-1,1h-.5a.5.5,0,0,0,0,1h.5a2,2,0,0,0,2-2v-5a2,2,0,0,0-2-2h-8a2,2,0,0,0-2,2v.5a.5.5,0,0,0,1,0v-.5a1,1,0,0,1,1-1" transform="translate(-1182 -337)" fill="#b5b5bf"></path>
                                    <path id="Path_3014" data-name="Path 3014" d="M131.349,93.312h5a.5.5,0,0,1,0,1h-5a.5.5,0,0,1,0-1" transform="translate(-1181 -343.5)" fill="#b5b5bf"></path>
                                    <path id="Path_3015" data-name="Path 3015" d="M131.349,99.312h5a.5.5,0,1,1,0,1h-5a.5.5,0,1,1,0-1" transform="translate(-1181 -346.5)" fill="#b5b5bf"></path>
                                </g>
                            </svg>