<svg id="Group_8116" data-name="Group 8116" xmlns="http://www.w3.org/2000/svg" xmlns:xlink="http://www.w3.org/1999/xlink" width="16" height="14" viewBox="0 0 16 14">
                            <defs>
                                <clipPath id="clip-path">
                                <rect id="Rectangle_1391" data-name="Rectangle 1391" width="16" height="14" fill="#b5b5bf"></rect>
                                </clipPath>
                            </defs>
                            <g id="Group_8115" data-name="Group 8115" clip-path="url(#clip-path)">
                                <path id="Path_2981" data-name="Path 2981" d="M14.682,1.318a4.5,4.5,0,0,0-6.364,0L8,1.636l-.318-.318A4.5,4.5,0,0,0,1.318,7.682l6.046,6.054a.9.9,0,0,0,1.273,0l6.045-6.054a4.5,4.5,0,0,0,0-6.364m-.707,5.657L8,12.959,2.025,6.975a3.5,3.5,0,0,1,4.95-4.95l.389.389a.9.9,0,0,0,1.273,0l.388-.389a3.5,3.5,0,0,1,4.95,4.95" transform="translate(0 0)" fill="#b5b5bf"></path>
                            </g>
                        </svg>