<svg xmlns="http://www.w3.org/2000/svg" width="32" height="32" viewBox="0 0 32 32">
                        <g id="Group_24236" data-name="Group 24236" transform="translate(-1454.002 -2430.002)">
                        <path id="Subtraction_11" data-name="Subtraction 11" d="M-14498,18932a15.894,15.894,0,0,1-11.312-4.687A15.909,15.909,0,0,1-14514,18916a15.884,15.884,0,0,1,4.685-11.309A15.9,15.9,0,0,1-14498,18900a15.909,15.909,0,0,1,11.316,4.688A15.885,15.885,0,0,1-14482,18916a15.9,15.9,0,0,1-4.687,11.316A15.909,15.909,0,0,1-14498,18932Zm0-31a14.9,14.9,0,0,0-10.605,4.393A14.9,14.9,0,0,0-14513,18916a14.9,14.9,0,0,0,4.395,10.607A14.9,14.9,0,0,0-14498,18931a14.9,14.9,0,0,0,10.607-4.393A14.9,14.9,0,0,0-14483,18916a14.9,14.9,0,0,0-4.393-10.607A14.9,14.9,0,0,0-14498,18901Z" transform="translate(15968 -16470)" fill="#919199"></path>
                        <g id="Group_24196" data-name="Group 24196" transform="translate(0 -1)">
                            <rect id="Rectangle_18406" data-name="Rectangle 18406" width="2" height="10" transform="translate(1469 2440)" fill="#919199"></rect>
                            <rect id="Rectangle_18407" data-name="Rectangle 18407" width="2" height="2" transform="translate(1469 2452)" fill="#919199"></rect>
                        </g>
                        </g>
                    </svg>