<svg xmlns="http://www.w3.org/2000/svg" width="48" height="48" viewBox="0 0 48 48">
                        <g id="Group_25000" data-name="Group 25000" transform="translate(-1367 -499)">
                        <path id="Path_32309" data-name="Path 32309" d="M24,0A24,24,0,1,1,0,24,24,24,0,0,1,24,0Z" transform="translate(1367 499)" fill="#3490f3"></path>
                        <g id="Group_24772" data-name="Group 24772" transform="translate(1383 515)">
                            <g id="Wooden" transform="translate(0 1)">
                            <path id="Path_25676" data-name="Path 25676" d="M290.82,413.6a4.5,4.5,0,0,0-6.364,0l-.318.318-.318-.318a4.5,4.5,0,1,0-6.364,6.364l6.046,6.054a.9.9,0,0,0,1.272,0l6.046-6.054A4.5,4.5,0,0,0,290.82,413.6Zm-.707,5.657-5.975,5.984-5.975-5.984a3.5,3.5,0,1,1,4.95-4.95l.389.389a.9.9,0,0,0,1.272,0l.389-.389a3.5,3.5,0,1,1,4.95,4.95Z" transform="translate(-276.138 -412.286)" fill="#fff"></path>
                            </g>
                            <rect id="Rectangle_1603" data-name="Rectangle 1603" width="16" height="16" transform="translate(0)" fill="none"></rect>
                        </g>
                        </g>
                    </svg>