<svg xmlns="http://www.w3.org/2000/svg" width="14.668" height="16" viewBox="0 0 14.668 16">
                                                <path id="_26._Notification" data-name="26. Notification" d="M8.333,16A3.34,3.34,0,0,0,11,14.667H5.666A3.34,3.34,0,0,0,8.333,16ZM15.06,9.78a2.457,2.457,0,0,1-.727-1.747V6a6,6,0,1,0-12,0V8.033A2.457,2.457,0,0,1,1.606,9.78,2.083,2.083,0,0,0,3.08,13.333H13.586A2.083,2.083,0,0,0,15.06,9.78Z" transform="translate(-0.999)" fill="#91919b"></path>
                                            </svg>