<svg xmlns="http://www.w3.org/2000/svg" width="13.333" height="20" viewBox="0 0 13.333 20">
                        <path id="Path_41551" data-name="Path 41551" d="M28.294,12.246a.4.4,0,0,0-.353-.209H23.855l3.264-6.508a.352.352,0,0,0-.023-.357A.4.4,0,0,0,26.765,5H20.49a.394.394,0,0,0-.358.219l-5.1,10.741a.353.353,0,0,0,.029.353.4.4,0,0,0,.329.169h3.827l-1.857,8.069a.365.365,0,0,0,.216.414.407.407,0,0,0,.476-.106l10.2-12.222a.354.354,0,0,0,.045-.391Z" transform="translate(-15 -5)" fill="#fff"></path>
                      </svg>