<svg xmlns="http://www.w3.org/2000/svg" width="48" height="48" viewBox="0 0 48 48">
                        <g id="Group_25000" data-name="Group 25000" transform="translate(-1367 -427)">
                        <path id="Path_32314" data-name="Path 32314" d="M24,0A24,24,0,1,1,0,24,24,24,0,0,1,24,0Z" transform="translate(1367 427)" fill="#d43533"></path>
                        <g id="Group_24770" data-name="Group 24770" transform="translate(1382.999 443)">
                            <path id="Path_25692" data-name="Path 25692" d="M294.507,424.89a2,2,0,1,0,2,2A2,2,0,0,0,294.507,424.89Zm0,3a1,1,0,1,1,1-1A1,1,0,0,1,294.507,427.89Z" transform="translate(-289.508 -412.89)" fill="#fff"></path>
                            <path id="Path_25693" data-name="Path 25693" d="M302.507,424.89a2,2,0,1,0,2,2A2,2,0,0,0,302.507,424.89Zm0,3a1,1,0,1,1,1-1A1,1,0,0,1,302.507,427.89Z" transform="translate(-289.508 -412.89)" fill="#fff"></path>
                            <g id="LWPOLYLINE">
                            <path id="Path_25694" data-name="Path 25694" d="M305.43,416.864a1.5,1.5,0,0,0-1.423-1.974h-9a.5.5,0,0,0,0,1h9a.467.467,0,0,1,.129.017.5.5,0,0,1,.354.611l-1.581,6a.5.5,0,0,1-.483.372h-7.462a.5.5,0,0,1-.489-.392l-1.871-8.433a1.5,1.5,0,0,0-1.465-1.175h-1.131a.5.5,0,1,0,0,1h1.043a.5.5,0,0,1,.489.391l1.871,8.434a1.5,1.5,0,0,0,1.465,1.175h7.55a1.5,1.5,0,0,0,1.423-1.026Z" transform="translate(-289.508 -412.89)" fill="#fff"></path>
                            </g>
                        </g>
                        </g>
                    </svg>