<svg xmlns="http://www.w3.org/2000/svg" width="32.002" height="32.002" viewBox="0 0 32.002 32.002">
                        <g id="Group_24198" data-name="Group 24198" transform="translate(-1113.999 -2398)">
                        <path id="Subtraction_14" data-name="Subtraction 14" d="M-14508,18916h0l-1,0a12.911,12.911,0,0,1,3.806-9.187A12.916,12.916,0,0,1-14496,18903a12.912,12.912,0,0,1,9.193,3.811A12.9,12.9,0,0,1-14483,18916l-1,0a11.918,11.918,0,0,0-3.516-8.484A11.919,11.919,0,0,0-14496,18904a11.921,11.921,0,0,0-8.486,3.516A11.913,11.913,0,0,0-14508,18916Z" transform="translate(15626 -16505)" fill="#919199"></path>
                        <path id="Subtraction_15" data-name="Subtraction 15" d="M-14510,18912h-1a3,3,0,0,1-3-3v-6a3,3,0,0,1,3-3h1a2,2,0,0,1,2,2v8A2,2,0,0,1-14510,18912Zm-1-11a2,2,0,0,0-2,2v6a2,2,0,0,0,2,2h1a1,1,0,0,0,1-1v-8a1,1,0,0,0-1-1Z" transform="translate(15628 -16489)" fill="#919199"></path>
                        <path id="Subtraction_19" data-name="Subtraction 19" d="M4,12H3A3,3,0,0,1,0,9V3A3,3,0,0,1,3,0H4A2,2,0,0,1,6,2v8A2,2,0,0,1,4,12ZM3,1A2,2,0,0,0,1,3V9a2,2,0,0,0,2,2H4a1,1,0,0,0,1-1V2A1,1,0,0,0,4,1Z" transform="translate(1146.002 2423) rotate(180)" fill="#919199"></path>
                        <path id="Subtraction_17" data-name="Subtraction 17" d="M-14512,18908a2,2,0,0,1-2-2v-4a2,2,0,0,1,2-2,2,2,0,0,1,2,2v4A2,2,0,0,1-14512,18908Zm0-7a1,1,0,0,0-1,1v4a1,1,0,0,0,1,1,1,1,0,0,0,1-1v-4A1,1,0,0,0-14512,18901Z" transform="translate(20034 16940.002) rotate(90)" fill="#919199"></path>
                        <rect id="Rectangle_18418" data-name="Rectangle 18418" width="1" height="4.001" transform="translate(1137.502 2427.502) rotate(90)" fill="#919199"></rect>
                        <path id="Intersection_1" data-name="Intersection 1" d="M-14508.5,18910a4.508,4.508,0,0,0,4.5-4.5h1a5.508,5.508,0,0,1-5.5,5.5Z" transform="translate(15646.004 -16482.5)" fill="#919199"></path>
                        </g>
                    </svg>