<svg xmlns="http://www.w3.org/2000/svg" width="26.004" height="32" viewBox="0 0 26.004 32">
                        <path id="Union_8" data-name="Union 8" d="M-14508,18932v-.01a6.01,6.01,0,0,1-5.975-5.492h-.021v-14h1v13.5h0a4.961,4.961,0,0,0,4.908,4.994h.091v0h14v1Zm17-4v-1a2,2,0,0,0,2-2h1a3,3,0,0,1-2.927,3Zm-16,0a3,3,0,0,1-3-3h1a2,2,0,0,0,2,2h16v1Zm18-3v-16.994h-4v-1h3.6l-5.6-5.6v3.6h-.01a2.01,2.01,0,0,0,2,2v1a3.009,3.009,0,0,1-3-3h.01v-4h.6l0,0H-14507a2,2,0,0,0-2,2v22h-1v-22a3,3,0,0,1,3-3v0h12l0,0,7,7-.01.01V18925Zm-16-4.992v-1h12v1Zm0-4.006v-1h12v1Zm0-4v-1h12v1Z" transform="translate(14513.998 -18900.002)" fill="#919199"></path>
                    </svg>