<svg xmlns="http://www.w3.org/2000/svg" width="16.001" height="16" viewBox="0 0 16.001 16">
                            <g id="Group_8110" data-name="Group 8110" transform="translate(-1388.154 -562.604)">
                                <path id="Path_2963" data-name="Path 2963" d="M77.864,98.69V92.1a.5.5,0,1,0-1,0V98.69l-1.437-1.437a.5.5,0,0,0-.707.707l1.851,1.852a1,1,0,0,0,.707.293h.172a1,1,0,0,0,.707-.293l1.851-1.852a.5.5,0,0,0-.7-.713Z" transform="translate(1318.79 478.5)" fill="#b5b5bf"></path>
                                <path id="Path_2964" data-name="Path 2964" d="M67.155,88.6a3,3,0,0,1-.474-5.963q-.009-.089-.015-.179a5.5,5.5,0,0,1,10.977-.718,3.5,3.5,0,0,1-.989,6.859h-1.5a.5.5,0,0,1,0-1l1.5,0a2.5,2.5,0,0,0,.417-4.967.5.5,0,0,1-.417-.5,4.5,4.5,0,1,0-8.908.866.512.512,0,0,1,.009.121.5.5,0,0,1-.52.479,2,2,0,1,0-.162,4l.081,0h2a.5.5,0,0,1,0,1Z" transform="translate(1324 486)" fill="#b5b5bf"></path>
                            </g>
                        </svg>