<svg id="Group_8142" data-name="Group 8142" xmlns="http://www.w3.org/2000/svg" xmlns:xlink="http://www.w3.org/1999/xlink" width="16" height="16" viewBox="0 0 16 16">
                                <defs>
                                    <clipPath id="clip-path">
                                    <rect id="Rectangle_1420" data-name="Rectangle 1420" width="16" height="16" fill="#b5b5bf"></rect>
                                    </clipPath>
                                </defs>
                                <g id="Group_8141" data-name="Group 8141" clip-path="url(#clip-path)">
                                    <path id="Path_3023" data-name="Path 3023" d="M5.3,13.642,11.217,5.2,9.58,4.059a.5.5,0,0,1-.819-.573L11.055.213a.5.5,0,0,1,.819.573L17.607,4.8a.5.5,0,0,1,.819.573L16.131,8.643a.5.5,0,0,1-.819-.573L13.675,6.924,7.762,15.361A1.5,1.5,0,0,1,5.3,13.642M15.886,7.251l1.147-1.637L11.3,1.6,10.153,3.241ZM6.246,14.91a.5.5,0,0,0,.7-.122l5.913-8.437-.819-.573L6.123,14.215a.5.5,0,0,0,.123.7" transform="translate(-5.033 0)" fill="#b5b5bf"></path>
                                    <path id="Path_3024" data-name="Path 3024" d="M3,30.472a.5.5,0,0,0,.5.5h7a.5.5,0,1,0,0-1h-7a.5.5,0,0,0-.5.5" transform="translate(3.5 -14.986)" fill="#b5b5bf"></path>
                                    <path id="Path_3025" data-name="Path 3025" d="M6.5,24.976h4a.5.5,0,0,1,.5.5v2H10v-1.5H7v1.5H6v-2a.5.5,0,0,1,.5-.5" transform="translate(2 -12.488)" fill="#b5b5bf"></path>
                                    <path id="Path_3026" data-name="Path 3026" d="M0,24.478H0a.5.5,0,0,0,.5.5h1a.5.5,0,1,0,0-1H.5a.5.5,0,0,0-.5.5" transform="translate(14 -11.989)" fill="#b5b5bf"></path>
                                    <path id="Path_3027" data-name="Path 3027" d="M4.439,19.007a.5.5,0,0,0-.707,0l-.707.706a.5.5,0,0,0,.707.706l.707-.706a.5.5,0,0,0,0-.706" transform="translate(9.975 -9.431)" fill="#b5b5bf"></path>
                                </g>
                            </svg>